# Blender v2.90.1 OBJ File: 'miku_head.blend'
# www.blender.org
mtllib miku_head.mtl
o miku_01
v 0.578381 -0.621536 -0.302476
v 0.996729 -0.333553 -0.359760
v 0.396488 0.645987 -0.078738
v 0.269960 0.091047 0.218252
v -0.003112 0.161867 0.389691
v -0.003111 -0.012252 0.231885
v -0.003111 0.088487 -0.317042
v 0.377796 0.453397 0.175482
v -0.003112 0.504553 0.370585
v -0.003112 0.211987 0.348304
v -0.276182 0.091046 0.218251
v -0.384020 0.453396 0.175481
v 0.181989 0.001917 0.071450
v 0.250498 0.081173 -0.368591
v 0.391557 0.453395 0.179339
v -0.188211 0.001916 0.071450
v -0.397781 0.453394 0.179338
v -0.256718 0.081172 -0.368592
v -0.222335 0.626517 -0.289316
v -0.320179 0.664035 0.119263
v -0.003112 0.788264 0.077579
v 0.216113 0.626518 -0.289315
v 0.313955 0.664036 0.119264
v -0.162586 0.453249 0.388788
v -0.003112 0.674672 0.356542
v 0.156362 0.453250 0.388789
v -0.003111 0.015717 0.111360
v 0.285415 0.737247 0.078906
v 0.414699 0.382044 0.078661
v 0.527372 0.423092 0.022778
v 0.578381 -0.621536 -0.302476
v 0.996729 -0.333553 -0.359760
v 0.396488 0.645987 -0.078738
v -0.404312 0.778295 0.023021
v -0.291639 0.737246 0.078905
v -0.262501 0.525768 -0.291781
v 0.293824 0.008753 0.200218
v -0.300046 0.008752 0.200217
v 0.180488 0.211997 0.358907
v 0.256279 0.525769 -0.291780
v 0.398088 0.778296 0.023023
v -0.533596 0.423091 0.022776
v -0.420923 0.382043 0.078660
v -0.584601 -0.621538 -0.302478
v -1.002949 -0.333555 -0.359763
v -0.402712 0.645986 -0.078739
v -0.584601 -0.621538 -0.302478
v -1.002949 -0.333555 -0.359763
v -0.402712 0.645986 -0.078739
v -0.404312 0.778295 0.023021
v -0.291639 0.737246 0.078905
v -0.262501 0.525768 -0.291781
v -0.533596 0.423091 0.022776
v -0.420923 0.382043 0.078660
v 0.285415 0.737247 0.078906
v 0.414699 0.382044 0.078661
v 0.527372 0.423092 0.022778
v 0.256279 0.525769 -0.291780
v 0.398088 0.778296 0.023023
vt 0.242090 0.161200
vt 0.193600 0.481200
vt 0.353600 0.233880
vt 0.212870 0.710990
vt 0.021600 0.758540
vt 0.021600 0.641750
vt 0.333230 0.855050
vt 0.329200 0.819200
vt 0.490800 0.854030
vt 0.288400 0.953870
vt 0.021600 0.988250
vt 0.021600 0.792120
vt 0.345900 0.980800
vt 0.212870 0.710990
vt 0.333230 0.855050
vt 0.288400 0.953870
vt 0.345900 0.980800
vt 0.371020 0.440900
vt 0.546540 0.475070
vt 0.328110 0.636310
vt 0.371020 0.440900
vt 0.328110 0.636310
vt 0.546540 0.475070
vt 0.515070 0.711090
vt 0.352130 0.727450
vt 0.368790 0.781200
vt 0.515070 0.711090
vt 0.352130 0.727450
vt 0.240270 0.636310
vt 0.257500 0.732120
vt 0.240270 0.636310
vt 0.871600 0.260000
vt 0.871600 0.020000
vt 0.948400 0.020000
vt 0.242090 0.161200
vt 0.353600 0.233880
vt 0.193600 0.481200
vt 0.948400 0.260000
vt 0.871600 0.260000
vt 0.910000 0.140000
vt 0.311050 0.443900
vt 0.311050 0.443900
vt 0.256430 0.531900
vt 0.910000 0.140000
vt 0.948400 0.260000
vt 0.948400 0.020000
vt 0.871600 0.020000
vt 0.242090 0.161200
vt 0.353600 0.233880
vt 0.193600 0.481200
vt 0.242090 0.161200
vt 0.193600 0.481200
vt 0.353600 0.233880
vt 0.948400 0.260000
vt 0.910000 0.140000
vt 0.871600 0.260000
vt 0.948400 0.020000
vt 0.871600 0.020000
vt 0.871600 0.260000
vt 0.948400 0.020000
vt 0.871600 0.020000
vt 0.910000 0.140000
vt 0.948400 0.260000
vn -0.2268 0.1376 -0.9642
vn 0.7505 -0.4181 0.5119
vn -0.0000 -0.0813 0.9967
vn 0.0000 -0.9453 0.3263
vn 0.0000 -0.8981 -0.4398
vn 0.7710 -0.1751 0.6122
vn -0.0000 -0.0759 0.9971
vn -0.0000 0.1799 0.9837
vn -0.7505 -0.4181 0.5119
vn -0.7710 -0.1751 0.6122
vn 0.2624 -0.8359 0.4821
vn 0.5758 -0.3198 -0.7525
vn 0.9054 0.0041 0.4246
vn -0.4356 -0.7986 0.4153
vn -0.8147 -0.0432 0.5783
vn -0.5667 -0.6617 -0.4909
vn -0.4916 0.5432 -0.6806
vn -0.6463 0.6981 0.3081
vn 0.0000 1.0000 -0.0071
vn 0.5795 0.6033 -0.5478
vn 0.6463 0.6981 0.3081
vn -0.3958 0.1787 0.9008
vn 0.0000 0.6818 0.7316
vn 0.3958 0.1787 0.9008
vn -0.0518 -0.0411 0.9978
vn 0.8549 0.3316 -0.3990
vn 0.7492 0.2938 0.5936
vn 0.2268 -0.1376 0.9642
vn -0.8517 0.3103 -0.4224
vn 0.3245 0.5791 -0.7479
vn 0.3420 0.9397 0.0007
vn 0.6610 -0.1104 0.7422
vn -0.6610 -0.1104 0.7422
vn -0.0000 -0.1229 0.9924
vn -0.3971 -0.1439 -0.9064
vn -0.0822 0.8750 0.4771
vn -0.1304 -0.8121 0.5687
vn -0.3420 -0.9397 -0.0006
vn -0.4998 -0.7237 0.4760
vn 0.2268 0.1376 -0.9642
vn -0.2268 -0.1376 0.9642
vn 0.8517 -0.3103 0.4224
vn -0.3245 -0.5792 0.7478
vn 0.1304 0.8121 -0.5687
vn 0.4997 0.7237 -0.4760
vn 0.3420 0.9397 0.0006
vn 0.0518 0.0412 -0.9978
vn -0.7492 -0.2938 -0.5936
vn -0.8549 -0.3316 0.3990
vn 0.3971 0.1439 0.9064
vn 0.0822 -0.8750 -0.4771
g miku_01_miku_01_unnamed
usemtl unnamed
s 1
f 1/1/1 3/2/1 2/3/1
f 4/4/2 5/5/3 6/6/4
f 4/7/2 6/8/4 7/9/5
f 8/10/6 9/11/7 10/12/8
f 4/4/2 8/10/6 10/12/8
f 5/5/3 4/4/2 10/12/8
f 7/9/5 8/13/6 4/7/2
f 6/6/4 5/5/3 11/14/9
f 7/9/5 6/8/4 11/15/9
f 10/12/8 9/11/7 12/16/10
f 10/12/8 12/16/10 11/14/9
f 10/12/8 11/14/9 5/5/3
f 11/15/9 12/17/10 7/9/5
f 13/18/11 14/19/12 15/20/13
f 16/21/14 17/22/15 18/23/16
f 19/24/17 18/23/16 17/22/15
f 20/25/18 21/26/19 19/24/17
f 15/20/13 14/19/12 22/27/20
f 22/27/20 21/26/19 23/28/21
f 24/29/22 25/30/23 20/25/18
f 23/28/21 25/30/23 26/31/24
f 26/31/24 25/30/23 24/29/22
f 21/26/19 20/25/18 25/30/23
f 23/28/21 21/26/19 25/30/23
f 14/19/12 18/23/16 19/24/17
f 19/24/17 21/26/19 22/27/20
f 18/23/16 14/19/12 13/18/11
f 13/18/11 15/20/13 17/22/15
f 23/28/21 15/20/13 22/27/20
f 20/25/18 19/24/17 17/22/15
f 15/20/13 23/28/21 26/31/24
f 17/22/15 24/29/22 20/25/18
f 22/27/20 14/19/12 19/24/17
f 16/21/14 18/23/16 13/18/11
f 16/21/14 13/18/11 17/22/15
f 28/32/25 29/33/26 30/34/27
f 31/35/28 32/36/28 33/37/28
f 34/38/29 35/39/30 36/40/31
f 26/31/24 37/41/32 15/20/13
f 17/22/15 38/42/33 24/29/22
f 24/29/22 39/43/34 26/31/24
f 40/44/35 30/34/27 29/33/26
f 41/45/36 40/44/35 28/32/25
f 30/34/27 41/45/36 28/32/25
f 42/46/37 36/40/38 43/47/39
f 35/39/30 42/46/37 43/47/39
f 34/38/29 42/46/37 35/39/30
f 44/48/40 45/49/40 46/50/40
f 47/51/41 49/52/41 48/53/41
f 50/54/42 52/55/38 51/56/43
f 53/57/44 54/58/45 52/55/46
f 51/56/43 54/58/45 53/57/44
f 50/54/42 51/56/43 53/57/44
f 55/59/47 57/60/48 56/61/49
f 58/62/50 56/61/49 57/60/48
f 59/63/51 55/59/47 58/62/50
f 57/60/48 55/59/47 59/63/51
