# Blender v2.90.1 OBJ File: 'miku_body.blend'
# www.blender.org
mtllib miku_body.mtl
o miku_01
v 0.491215 0.214474 -0.218798
v 0.491722 0.238680 -0.142215
v -0.521949 0.214472 -0.218800
v -0.015367 0.367776 -0.439855
v -0.015366 -0.260767 -0.160579
v -0.015367 -0.027744 0.211087
v 0.196392 -0.027590 -0.011676
v 0.161076 0.214330 -0.011509
v -0.015367 0.214222 0.145307
v -0.015367 0.295006 -0.011453
v -0.015367 0.214438 -0.168106
v -0.015366 -0.027506 -0.133837
v -0.015367 -0.027732 0.193841
v -0.015367 -0.261052 0.252547
v 0.311874 -0.260869 -0.011836
v 0.175216 -0.027590 -0.011676
v -0.015366 -0.260687 -0.276221
v -0.015367 -0.027518 -0.116591
v -0.191810 0.214330 -0.011509
v -0.227126 -0.027590 -0.011676
v -0.342606 -0.260870 -0.011838
v -0.205950 -0.027590 -0.011676
v -0.142893 -0.134234 0.250347
v 0.112159 -0.134234 0.250348
v -0.015367 0.214205 0.169211
v -0.099534 0.255007 0.092602
v 0.068800 0.255007 0.092602
v 0.325054 -0.183109 -0.011783
v -0.015366 -0.182930 -0.272823
v -0.355786 -0.183110 -0.011784
v -0.015367 -0.202732 0.263953
v 0.109331 -0.183240 0.177201
v -0.140065 -0.183241 0.177200
vt 0.018000 0.147240
vt 0.196080 0.147240
vt 0.166380 0.354000
vt 0.018000 0.354000
vt 0.018000 0.420000
vt 0.536380 0.354000
vt 0.388000 0.354000
vt 0.388000 0.420000
vt 0.566080 0.147240
vt 0.388000 0.147240
vt 0.538800 0.975700
vt 0.538800 0.821700
vt 0.758800 0.821700
vt 0.658620 0.975700
vt 0.538800 0.821700
vt 0.538800 0.975700
vt 0.658620 0.975700
vt 0.974800 0.381850
vt 0.891310 0.305950
vt 0.891310 0.457750
vt 0.166380 0.354000
vt 0.196080 0.147240
vt 0.536380 0.354000
vt 0.566080 0.147240
vt 0.758800 0.821700
vt 0.658620 0.975700
vt 0.658620 0.975700
vt 0.974800 0.381850
vt 0.857440 0.528100
vt 0.990560 0.528100
vt 0.924000 0.784610
vt 0.880070 0.824540
vt 0.967930 0.824540
vt 0.358000 0.020000
vt 0.728000 0.020000
vt 0.388000 0.020000
vt 0.728000 0.020000
vt 0.924000 0.491740
vt 0.018000 0.020000
vt 0.358000 0.020000
vt 0.018000 0.020000
vn 0.1487 -0.0429 0.9880
vn 0.7560 0.4317 -0.4921
vn 0.7908 0.5814 0.1913
vn -0.0000 0.6623 0.7493
vn -0.0000 1.0000 0.0004
vn -0.0000 0.3666 -0.9304
vn -0.0000 0.3027 -0.9531
vn -0.0000 0.3890 0.9212
vn 0.0000 -0.7272 0.6865
vn 0.9433 -0.0340 0.3301
vn 0.8606 0.5042 -0.0713
vn 0.0000 -0.0875 -0.9962
vn -0.0000 0.5649 -0.8252
vn 0.7560 0.4316 -0.4921
vn 0.0001 -0.0874 -0.9962
vn -0.7908 0.5814 0.1913
vn -0.8805 0.2245 -0.4175
vn -0.9433 -0.0340 0.3301
vn -0.8606 0.5042 -0.0713
vn -0.5563 0.2489 -0.7928
vn 0.0201 0.2175 0.9759
vn -0.0201 0.2175 0.9759
vn 0.0000 0.6092 0.7930
vn 0.0000 0.8826 0.4701
vn 0.6744 0.7302 0.1094
vn -0.0000 0.6064 -0.7952
vn -0.6550 -0.6129 0.4420
vn -0.0000 0.1948 0.9808
vn 0.6190 0.3424 0.7068
vn -0.6190 0.3424 0.7068
g miku_01_miku_01_unnamed
usemtl unnamed
s 1
f 6/1/1 7/2/2 8/3/3
f 9/4/4 8/3/3 10/5/5
f 9/4/4 6/1/1 8/3/3
f 8/6/3 11/7/6 10/8/5
f 7/9/2 12/10/7 11/7/6
f 8/6/3 7/9/2 11/7/6
f 13/11/8 14/12/9 15/13/10
f 16/14/11 13/11/8 15/13/10
f 16/14/11 15/13/10 17/15/12
f 18/16/13 7/17/14 17/15/15
f 15/18/10 14/19/9 17/20/12
f 19/21/16 20/22/17 6/1/1
f 10/5/5 19/21/16 9/4/4
f 19/21/16 6/1/1 9/4/4
f 10/8/5 11/7/6 19/23/16
f 11/7/6 12/10/7 20/24/17
f 11/7/6 20/24/17 19/23/16
f 21/25/18 14/12/9 13/11/8
f 21/25/18 13/11/8 22/26/19
f 17/15/12 21/25/18 22/26/19
f 17/15/15 20/27/20 18/16/13
f 17/20/12 14/19/9 21/28/18
f 23/29/21 24/30/22 25/31/23
f 26/32/24 25/31/23 27/33/24
f 28/34/25 7/2/2 6/1/1
f 7/9/2 28/35/25 29/36/26
f 12/10/7 7/9/2 29/36/26
f 29/36/26 30/37/27 20/24/17
f 29/36/26 20/24/17 12/10/7
f 24/30/22 23/29/21 31/38/28
f 6/1/1 32/39/29 28/34/25
f 30/40/27 6/1/1 20/22/17
f 33/41/30 6/1/1 30/40/27
