# Blender v2.90.1 OBJ File: 'miku2.blend'
# www.blender.org
mtllib miku_01.mtl
o miku_01
v 0.581492 -0.556578 -0.413780
v 0.999840 -0.268594 -0.471064
v 0.399599 0.710946 -0.190042
v 0.506582 0.235043 0.000163
v 0.506582 -0.000142 0.207291
v 0.506582 0.000144 -0.207289
v 0.176443 0.000000 0.000000
v 0.576304 0.078678 0.000055
v 0.507089 0.172247 0.000120
v 0.507089 0.024169 0.130741
v 0.507089 0.024350 -0.130706
v -0.506582 -0.000144 0.207289
v -0.506582 0.235041 0.000161
v -0.506582 0.000142 -0.207291
v -0.176443 0.000000 0.000000
v -0.507089 0.024168 0.130740
v -0.507089 0.172245 0.000118
v -0.576304 0.078676 0.000053
v -0.507089 0.024349 -0.130708
v 0.273071 0.156006 0.106948
v -0.000001 0.226826 0.278387
v 0.000000 0.052707 0.120581
v 0.000000 0.153446 -0.428346
v 0.380907 0.518356 0.064178
v -0.000001 0.569512 0.259281
v -0.000001 0.276946 0.237000
v -0.273071 0.156005 0.106947
v -0.380909 0.518355 0.064177
v 0.230959 -0.475200 -0.000328
v 0.094123 -0.665658 -0.000459
v 0.000001 -0.475097 -0.149070
v 0.000000 -0.475303 0.148414
v 0.000001 -0.475097 -0.149070
v -0.094121 -0.665658 -0.000460
v -0.230957 -0.475200 -0.000328
v 0.000000 -0.475303 0.148414
v 0.185100 0.066876 -0.039854
v 0.253609 0.146132 -0.479895
v 0.394668 0.518354 0.068035
v -0.185100 0.066875 -0.039854
v -0.394670 0.518353 0.068034
v -0.253607 0.146131 -0.479896
v -0.219224 0.691476 -0.400620
v -0.317068 0.728994 0.007959
v -0.000001 0.853223 -0.033725
v 0.219224 0.691477 -0.400619
v 0.317066 0.728995 0.007960
v -0.159475 0.518208 0.277484
v -0.000001 0.739631 0.245238
v 0.159473 0.518209 0.277485
v 0.000000 -0.242074 0.222596
v 0.211759 -0.241920 -0.000167
v 0.176443 0.000000 0.000000
v 0.000000 -0.000108 0.156816
v 0.000000 0.080676 0.000056
v 0.000000 0.000108 -0.156597
v 0.000001 -0.241836 -0.122328
v 0.000000 -0.242062 0.205350
v 0.000000 -0.475382 0.264056
v 0.327241 -0.475199 -0.000327
v 0.190583 -0.241920 -0.000167
v 0.000001 -0.475017 -0.264712
v 0.000000 -0.241848 -0.105082
v -0.176443 0.000000 0.000000
v -0.211759 -0.241920 -0.000167
v -0.327239 -0.475200 -0.000329
v -0.190583 -0.241920 -0.000167
v 0.288526 0.802206 -0.032398
v 0.417810 0.447003 -0.032643
v 0.530483 0.488051 -0.088526
v -0.127526 -0.348564 0.261856
v 0.127526 -0.348564 0.261857
v 0.000000 -0.000125 0.180720
v -0.084167 0.040677 0.104111
v 0.084167 0.040677 0.104111
v 0.581492 -0.556578 -0.413780
v 0.999840 -0.268594 -0.471064
v 0.399599 0.710946 -0.190042
v -0.401201 0.843254 -0.088283
v -0.288528 0.802205 -0.032399
v -0.259390 0.590727 -0.403085
v 0.296935 0.073712 0.088914
v -0.296935 0.073711 0.088913
v 0.183599 0.276956 0.247603
v 0.340421 -0.397439 -0.000274
v 0.000001 -0.397260 -0.261314
v -0.340419 -0.397440 -0.000275
v 0.259390 0.590728 -0.403084
v 0.401199 0.843255 -0.088281
v 0.000000 -0.417062 0.275462
v -0.530485 0.488050 -0.088528
v -0.417812 0.447002 -0.032644
v -0.581490 -0.556579 -0.413782
v -0.999838 -0.268596 -0.471067
v -0.399601 0.710945 -0.190043
v 0.124698 -0.397570 0.188710
v -0.124698 -0.397571 0.188709
v -0.581490 -0.556579 -0.413782
v -0.999838 -0.268596 -0.471067
v -0.399601 0.710945 -0.190043
v -0.401201 0.843254 -0.088283
v -0.288528 0.802205 -0.032399
v -0.259390 0.590727 -0.403085
v -0.530485 0.488050 -0.088528
v -0.417812 0.447002 -0.032644
v 0.288526 0.802206 -0.032398
v 0.417810 0.447003 -0.032643
v 0.530483 0.488051 -0.088526
v 0.259390 0.590728 -0.403084
v 0.401199 0.843255 -0.088281
vt 0.242090 0.161200
vt 0.193600 0.481200
vt 0.353600 0.233880
vt 0.844450 0.389190
vt 0.589240 0.389190
vt 0.589240 0.389190
vt 0.589240 0.704280
vt 0.111680 0.510370
vt 0.056480 0.597620
vt 0.056480 0.459620
vt 0.056480 0.459620
vt 0.589240 0.389190
vt 0.844450 0.389190
vt 0.589240 0.389190
vt 0.589240 0.704280
vt 0.056480 0.459620
vt 0.056480 0.597620
vt 0.111680 0.510370
vt 0.056480 0.459620
vt 0.212870 0.710990
vt 0.021600 0.758540
vt 0.021600 0.641750
vt 0.333230 0.855050
vt 0.329200 0.819200
vt 0.490800 0.854030
vt 0.288400 0.953870
vt 0.021600 0.988250
vt 0.021600 0.792120
vt 0.345900 0.980800
vt 0.212870 0.710990
vt 0.333230 0.855050
vt 0.288400 0.953870
vt 0.345900 0.980800
vt 0.986640 0.981650
vt 0.831120 0.818350
vt 0.753360 0.981650
vt 0.753360 0.981650
vt 0.753360 0.981650
vt 0.831120 0.818350
vt 0.986640 0.981650
vt 0.753360 0.981650
vt 0.371020 0.440900
vt 0.546540 0.475070
vt 0.328110 0.636310
vt 0.371020 0.440900
vt 0.328110 0.636310
vt 0.546540 0.475070
vt 0.515070 0.711090
vt 0.352130 0.727450
vt 0.368790 0.781200
vt 0.515070 0.711090
vt 0.352130 0.727450
vt 0.240270 0.636310
vt 0.257500 0.732120
vt 0.240270 0.636310
vt 0.018000 0.147240
vt 0.196080 0.147240
vt 0.166380 0.354000
vt 0.018000 0.354000
vt 0.018000 0.420000
vt 0.536380 0.354000
vt 0.388000 0.354000
vt 0.388000 0.420000
vt 0.566080 0.147240
vt 0.388000 0.147240
vt 0.538800 0.975700
vt 0.538800 0.821700
vt 0.758800 0.821700
vt 0.658620 0.975700
vt 0.538800 0.821700
vt 0.538800 0.975700
vt 0.658620 0.975700
vt 0.974800 0.381850
vt 0.891310 0.305950
vt 0.891310 0.457750
vt 0.166380 0.354000
vt 0.196080 0.147240
vt 0.536380 0.354000
vt 0.566080 0.147240
vt 0.758800 0.821700
vt 0.658620 0.975700
vt 0.658620 0.975700
vt 0.974800 0.381850
vt 0.871600 0.260000
vt 0.871600 0.020000
vt 0.948400 0.020000
vt 0.857440 0.528100
vt 0.990560 0.528100
vt 0.924000 0.784610
vt 0.880070 0.824540
vt 0.967930 0.824540
vt 0.242090 0.161200
vt 0.353600 0.233880
vt 0.193600 0.481200
vt 0.948400 0.260000
vt 0.871600 0.260000
vt 0.910000 0.140000
vt 0.311050 0.443900
vt 0.311050 0.443900
vt 0.256430 0.531900
vt 0.358000 0.020000
vt 0.728000 0.020000
vt 0.388000 0.020000
vt 0.728000 0.020000
vt 0.910000 0.140000
vt 0.948400 0.260000
vt 0.924000 0.491740
vt 0.948400 0.020000
vt 0.871600 0.020000
vt 0.242090 0.161200
vt 0.353600 0.233880
vt 0.193600 0.481200
vt 0.018000 0.020000
vt 0.358000 0.020000
vt 0.018000 0.020000
vt 0.242090 0.161200
vt 0.193600 0.481200
vt 0.353600 0.233880
vt 0.948400 0.260000
vt 0.910000 0.140000
vt 0.871600 0.260000
vt 0.948400 0.020000
vt 0.871600 0.020000
vt 0.871600 0.260000
vt 0.948400 0.020000
vt 0.871600 0.020000
vt 0.910000 0.140000
vt 0.948400 0.260000
vn -0.2268 0.1376 -0.9642
vn 0.1227 0.9924 0.0007
vn 0.5885 -0.4122 0.6955
vn 0.5885 -0.4113 -0.6960
vn -0.9743 0.2250 0.0002
vn 0.9948 0.1022 0.0001
vn 0.8039 0.5947 0.0004
vn 0.8977 -0.2049 0.3900
vn 0.8977 -0.2043 -0.3903
vn -0.5885 -0.4122 0.6955
vn -0.1227 0.9924 0.0007
vn -0.5885 -0.4113 -0.6960
vn 0.9743 0.2251 0.0001
vn -0.8977 -0.2049 0.3900
vn -0.8039 0.5947 0.0004
vn -0.9948 0.1022 0.0001
vn -0.8977 -0.2043 -0.3903
vn 0.7505 -0.4181 0.5119
vn -0.0000 -0.0813 0.9967
vn 0.0000 -0.9453 0.3263
vn 0.0000 -0.8981 -0.4398
vn 0.7710 -0.1751 0.6122
vn -0.0000 -0.0759 0.9971
vn -0.0000 0.1799 0.9837
vn -0.7505 -0.4181 0.5119
vn -0.7710 -0.1751 0.6122
vn 0.8121 -0.5835 -0.0004
vn 0.0960 -0.9954 -0.0007
vn -0.3293 -0.6764 -0.6588
vn -0.3293 -0.6773 0.6579
vn 0.3293 -0.6764 -0.6588
vn -0.0960 -0.9954 -0.0007
vn -0.8121 -0.5835 -0.0004
vn 0.3293 -0.6773 0.6579
vn 0.2624 -0.8359 0.4821
vn 0.5758 -0.3198 -0.7525
vn 0.9054 0.0041 0.4246
vn -0.4356 -0.7986 0.4153
vn -0.8147 -0.0432 0.5783
vn -0.5667 -0.6617 -0.4909
vn -0.4916 0.5432 -0.6806
vn -0.6463 0.6981 0.3081
vn 0.0000 1.0000 -0.0071
vn 0.5795 0.6033 -0.5478
vn 0.6463 0.6981 0.3081
vn -0.3958 0.1787 0.9008
vn 0.0000 0.6818 0.7316
vn 0.3958 0.1787 0.9008
vn 0.1487 -0.0429 0.9880
vn 0.7560 0.4317 -0.4921
vn 0.7908 0.5814 0.1913
vn -0.0000 0.6623 0.7493
vn -0.0000 1.0000 0.0004
vn -0.0000 0.3666 -0.9304
vn -0.0000 0.3027 -0.9531
vn -0.0000 0.3890 0.9212
vn 0.0000 -0.7272 0.6865
vn 0.9433 -0.0340 0.3301
vn 0.8606 0.5042 -0.0713
vn 0.0000 -0.0875 -0.9962
vn -0.0000 0.5649 -0.8252
vn 0.7560 0.4316 -0.4921
vn 0.0001 -0.0874 -0.9962
vn -0.7908 0.5814 0.1913
vn -0.8805 0.2245 -0.4175
vn -0.9433 -0.0340 0.3301
vn -0.8606 0.5042 -0.0713
vn -0.5563 0.2489 -0.7928
vn -0.0518 -0.0411 0.9978
vn 0.8549 0.3316 -0.3990
vn 0.7492 0.2938 0.5936
vn 0.0201 0.2175 0.9759
vn -0.0201 0.2175 0.9759
vn 0.0000 0.6092 0.7930
vn 0.0000 0.8826 0.4701
vn 0.2268 -0.1376 0.9642
vn -0.8517 0.3103 -0.4224
vn 0.3245 0.5791 -0.7479
vn 0.3420 0.9397 0.0007
vn 0.6610 -0.1104 0.7422
vn -0.6610 -0.1104 0.7422
vn -0.0000 -0.1229 0.9924
vn 0.6744 0.7302 0.1094
vn -0.0000 0.6064 -0.7952
vn -0.6550 -0.6129 0.4420
vn -0.3971 -0.1439 -0.9064
vn -0.0822 0.8750 0.4771
vn -0.0000 0.1948 0.9808
vn -0.1304 -0.8121 0.5687
vn -0.3420 -0.9397 -0.0006
vn -0.4997 -0.7237 0.4760
vn 0.2268 0.1376 -0.9642
vn 0.6190 0.3424 0.7068
vn -0.6190 0.3424 0.7068
vn -0.2268 -0.1376 0.9642
vn 0.8517 -0.3103 0.4224
vn -0.3245 -0.5792 0.7478
vn 0.1304 0.8121 -0.5687
vn 0.4997 0.7237 -0.4760
vn 0.3420 0.9397 0.0006
vn 0.0518 0.0412 -0.9978
vn -0.7492 -0.2938 -0.5936
vn -0.8549 -0.3316 0.3990
vn 0.3971 0.1439 0.9064
vn 0.0822 -0.8750 -0.4771
g miku_01_miku_01_unnamed
usemtl unnamed
s 1
f 1/1/1 3/2/1 2/3/1
f 4/4/2 5/5/3 6/6/4
f 6/6/4 5/5/3 7/7/5
f 7/7/5 4/4/2 6/6/4
f 5/5/3 4/4/2 7/7/5
f 8/8/6 9/9/7 10/10/8
f 11/11/9 9/9/7 8/8/6
f 8/8/6 10/10/8 11/11/9
f 12/12/10 13/13/11 14/14/12
f 15/15/13 12/12/10 14/14/12
f 14/14/12 13/13/11 15/15/13
f 13/13/11 12/12/10 15/15/13
f 16/16/14 17/17/15 18/18/16
f 18/18/16 17/17/15 19/19/17
f 19/19/17 16/16/14 18/18/16
f 20/20/18 21/21/19 22/22/20
f 20/23/18 22/24/20 23/25/21
f 24/26/22 25/27/23 26/28/24
f 20/20/18 24/26/22 26/28/24
f 21/21/19 20/20/18 26/28/24
f 23/25/21 24/29/22 20/23/18
f 22/22/20 21/21/19 27/30/25
f 23/25/21 22/24/20 27/31/25
f 26/28/24 25/27/23 28/32/26
f 26/28/24 28/32/26 27/30/25
f 26/28/24 27/30/25 21/21/19
f 27/31/25 28/33/26 23/25/21
f 29/34/27 30/35/28 31/36/29
f 31/36/29 30/35/28 32/37/30
f 32/37/30 30/35/28 29/34/27
f 33/38/31 34/39/32 35/40/33
f 36/41/34 34/39/32 33/38/31
f 35/40/33 34/39/32 36/41/34
f 37/42/35 38/43/36 39/44/37
f 40/45/38 41/46/39 42/47/40
f 43/48/41 42/47/40 41/46/39
f 44/49/42 45/50/43 43/48/41
f 39/44/37 38/43/36 46/51/44
f 46/51/44 45/50/43 47/52/45
f 48/53/46 49/54/47 44/49/42
f 47/52/45 49/54/47 50/55/48
f 50/55/48 49/54/47 48/53/46
f 45/50/43 44/49/42 49/54/47
f 47/52/45 45/50/43 49/54/47
f 38/43/36 42/47/40 43/48/41
f 43/48/41 45/50/43 46/51/44
f 42/47/40 38/43/36 37/42/35
f 37/42/35 39/44/37 41/46/39
f 47/52/45 39/44/37 46/51/44
f 44/49/42 43/48/41 41/46/39
f 39/44/37 47/52/45 50/55/48
f 41/46/39 48/53/46 44/49/42
f 46/51/44 38/43/36 43/48/41
f 40/45/38 42/47/40 37/42/35
f 40/45/38 37/42/35 41/46/39
f 51/56/49 52/57/50 53/58/51
f 54/59/52 53/58/51 55/60/53
f 54/59/52 51/56/49 53/58/51
f 53/61/51 56/62/54 55/63/53
f 52/64/50 57/65/55 56/62/54
f 53/61/51 52/64/50 56/62/54
f 58/66/56 59/67/57 60/68/58
f 61/69/59 58/66/56 60/68/58
f 61/69/59 60/68/58 62/70/60
f 63/71/61 52/72/62 62/70/63
f 60/73/58 59/74/57 62/75/60
f 64/76/64 65/77/65 51/56/49
f 55/60/53 64/76/64 54/59/52
f 64/76/64 51/56/49 54/59/52
f 55/63/53 56/62/54 64/78/64
f 56/62/54 57/65/55 65/79/65
f 56/62/54 65/79/65 64/78/64
f 66/80/66 59/67/57 58/66/56
f 66/80/66 58/66/56 67/81/67
f 62/70/60 66/80/66 67/81/67
f 62/70/63 65/82/68 63/71/61
f 62/75/60 59/74/57 66/83/66
f 68/84/69 69/85/70 70/86/71
f 71/87/72 72/88/73 73/89/74
f 74/90/75 73/89/74 75/91/75
f 76/92/76 77/93/76 78/94/76
f 79/95/77 80/96/78 81/97/79
f 50/55/48 82/98/80 39/44/37
f 41/46/39 83/99/81 48/53/46
f 48/53/46 84/100/82 50/55/48
f 85/101/83 52/57/50 51/56/49
f 52/64/50 85/102/83 86/103/84
f 57/65/55 52/64/50 86/103/84
f 86/103/84 87/104/85 65/79/65
f 86/103/84 65/79/65 57/65/55
f 88/105/86 70/86/71 69/85/70
f 89/106/87 88/105/86 68/84/69
f 70/86/71 89/106/87 68/84/69
f 72/88/73 71/87/72 90/107/88
f 91/108/89 81/97/90 92/109/91
f 80/96/78 91/108/89 92/109/91
f 79/95/77 91/108/89 80/96/78
f 93/110/92 94/111/92 95/112/92
f 51/56/49 96/113/93 85/101/83
f 87/114/85 51/56/49 65/77/65
f 97/115/94 51/56/49 87/114/85
f 98/116/95 100/117/95 99/118/95
f 101/119/96 103/120/90 102/121/97
f 104/122/98 105/123/99 103/120/100
f 102/121/97 105/123/99 104/122/98
f 101/119/96 102/121/97 104/122/98
f 106/124/101 108/125/102 107/126/103
f 109/127/104 107/126/103 108/125/102
f 110/128/105 106/124/101 109/127/104
f 108/125/102 106/124/101 110/128/105
